<svg xmlns="http://www.w3.org/2000/svg" viewBox="0 0 780 500" width="78" height="50">
  <rect width="780" height="500" rx="40" fill="#1A1F71"/>
  <path d="M293.2 348.7l33.4-195.8h53.4l-33.4 195.8zM540.7 157.2c-10.6-4-27.2-8.3-47.9-8.3-52.8 0-90 26.6-90.2 64.6-.3 28.1 26.5 43.8 46.8 53.2 20.8 9.6 27.8 15.8 27.7 24.4-.1 13.2-16.6 19.2-32 19.2-21.4 0-32.7-3-50.3-10.2l-6.9-3.1-7.5 43.8c12.5 5.5 35.6 10.2 59.6 10.5 56.2 0 92.6-26.3 93-66.8.2-22.3-14-39.2-44.8-53.2-18.6-9.1-30.1-15.1-30-24.3 0-8.1 9.7-16.8 30.6-16.8 17.4-.3 30.1 3.5 39.9 7.5l4.8 2.3 7.2-42.7zM671.3 152.9h-41.3c-12.8 0-22.4 3.5-28 16.3l-79.4 179.5h56.2s9.2-24.2 11.3-29.5c6.1 0 60.8.1 68.6.1 1.6 6.9 6.5 29.4 6.5 29.4h49.7l-43.6-195.8zm-65.9 126.3c4.4-11.3 21.4-54.8 21.4-54.8-.3.5 4.4-11.4 7.1-18.8l3.6 17s10.3 47 12.5 56.6h-44.6zM232.8 152.9L180.5 285l-5.6-27c-9.7-31.2-39.9-65.1-73.7-82l47.9 171.6 56.6-.1 84.2-195.6h-57.1z" fill="#fff"/>
  <path d="M131.9 152.9H46.5l-.7 4c67.2 16.2 111.7 55.5 130.1 102.6l-18.8-90.3c-3.2-12.4-12.6-16-25.2-16.3z" fill="#F9A51A"/>
</svg>
